<?xml version="1.0" encoding="UTF-8" standalone="no"?>
<!-- Created with Inkscape (http://www.inkscape.org/) -->

<svg
   width="87.697807mm"
   height="23.432859mm"
   viewBox="0 0 87.697807 23.432859"
   version="1.1"
   id="svg5"
   sodipodi:docname="loutils_blanc_fond_noir.svg"
   inkscape:version="1.1 (c68e22c387, 2021-05-23)"
   xmlns:inkscape="http://www.inkscape.org/namespaces/inkscape"
   xmlns:sodipodi="http://sodipodi.sourceforge.net/DTD/sodipodi-0.dtd"
   xmlns="http://www.w3.org/2000/svg"
   xmlns:svg="http://www.w3.org/2000/svg">
  <sodipodi:namedview
     id="namedview7"
     pagecolor="#ffffff"
     bordercolor="#666666"
     borderopacity="1.0"
     inkscape:pageshadow="2"
     inkscape:pageopacity="0.0"
     inkscape:pagecheckerboard="0"
     inkscape:document-units="mm"
     showgrid="false"
     showguides="true"
     inkscape:guide-bbox="true"
     inkscape:lockguides="false"
     fit-margin-top="0"
     fit-margin-left="0"
     fit-margin-right="0"
     fit-margin-bottom="0"
     inkscape:zoom="5.6568543"
     inkscape:cx="186.05747"
     inkscape:cy="43.752232"
     inkscape:window-width="2400"
     inkscape:window-height="1271"
     inkscape:window-x="2391"
     inkscape:window-y="-9"
     inkscape:window-maximized="1"
     inkscape:current-layer="g118673">
    <sodipodi:guide
       position="4.6772159,14.07843"
       orientation="1,0"
       id="guide101798"
       inkscape:locked="false" />
    <sodipodi:guide
       position="54.638969,20.78012"
       orientation="0,-1"
       id="guide103942"
       inkscape:locked="false" />
    <sodipodi:guide
       position="62.86179,20.78013"
       orientation="0,-1"
       id="guide105942"
       inkscape:locked="false" />
    <sodipodi:guide
       position="54.726799,2.6543498"
       orientation="0,-1"
       id="guide107702"
       inkscape:locked="false" />
    <sodipodi:guide
       position="83.067373,4.2679598"
       orientation="1,0"
       id="guide111674"
       inkscape:locked="false" />
    <sodipodi:guide
       position="45.440298,27.01146"
       orientation="1,0"
       id="guide111676"
       inkscape:locked="false" />
    <sodipodi:guide
       position="58.603319,33.95678"
       orientation="1,0"
       id="guide111678"
       inkscape:locked="false" />
  </sodipodi:namedview>
  <defs
     id="defs2">
    <inkscape:perspective
       sodipodi:type="inkscape:persp3d"
       inkscape:vp_x="0 : -125.06714 : 1"
       inkscape:vp_y="0 : 999.99993 : 0"
       inkscape:vp_z="210.00001 : -125.06714 : 1"
       inkscape:persp3d-origin="105.00001 : -174.56714 : 1"
       id="perspective47444" />
    <rect
       x="138.93256"
       y="224.98778"
       width="595.47455"
       height="244.34157"
       id="rect1881" />
  </defs>
  <g
     inkscape:label="Calque 1"
     inkscape:groupmode="layer"
     id="layer1"
     transform="translate(-37.043556,-53.320271)">
    <g
       id="g118673">
      <g
         id="g120753">
        <path
           id="rect67937"
           style="fill:#000000;stroke-width:0.0952153;fill-opacity:1"
           d="m 37.043556,53.320271 h 87.697804 v 23.43286 H 37.043556 Z" />
        <g
           transform="scale(0.26458333)"
           id="text1879"
           style="font-size:40px;line-height:1.25;white-space:pre;shape-inside:url(#rect1881)" />
        <g
           aria-label="Lou   ils"
           transform="scale(1.1009543,0.9083029)"
           id="text2877"
           style="font-size:24.8571px;line-height:1.35;letter-spacing:0.355379px;word-spacing:0px;fill:#f9f9f9;stroke-width:0.291293">
          <path
             d="m 40.809464,61.623728 v 17.455197 h 8.229059 v 2.45886 H 37.847974 V 61.623728 Z"
             style="letter-spacing:-2.4061px;fill:#f9f9f9;stroke-width:0.307327"
             id="path117767" />
          <path
             d="m 55.881012,67.774137 q 1.335098,0.07282 2.427451,0.655412 1.092353,0.558314 1.820589,1.50502 0.752509,0.922431 1.165176,2.160431 0.412667,1.238 0.412667,2.645922 0,1.407922 -0.436941,2.645922 -0.412667,1.213725 -1.165177,2.136157 -0.75251,0.898156 -1.844863,1.45647 -1.092353,0.558314 -2.378902,0.655412 V 79.30453 q 1.213726,-0.26702 1.966236,-1.529294 0.776784,-1.262275 0.776784,-3.034314 0,-0.898157 -0.194196,-1.674941 -0.169922,-0.801059 -0.534039,-1.432197 -0.364118,-0.631137 -0.873883,-1.043804 -0.509765,-0.412666 -1.140902,-0.534039 z m -6.772589,6.918236 q 0,-1.407922 0.412667,-2.621647 0.412667,-1.213726 1.165177,-2.111883 0.776784,-0.922431 1.844863,-1.480745 1.068078,-0.558314 2.354627,-0.679686 v 2.257529 q -1.213725,0.26702 -1.941961,1.529294 -0.728235,1.262275 -0.728235,3.034314 0,0.898157 0.169921,1.699216 0.194197,0.801059 0.53404,1.432196 0.339843,0.631138 0.825333,1.043804 0.509765,0.412667 1.140902,0.509765 v 2.330353 q -1.335098,-0.0971 -2.403176,-0.655412 -1.068079,-0.582588 -1.820589,-1.505019 -0.75251,-0.922432 -1.165176,-2.160432 -0.388393,-1.238 -0.388393,-2.621647 z"
             style="letter-spacing:-2.4061px;fill:#f9f9f9"
             id="path117769" />
          <path
             d="m 65.976285,75.299236 q 0,0.849608 0.07282,1.602117 0.07282,0.728236 0.315569,1.286549 0.242745,0.558314 0.728235,0.898157 0.48549,0.339844 1.286549,0.339844 0.315569,0 0.898157,-0.0971 0.582588,-0.0971 1.116628,-0.315568 v 1.796314 q -0.631138,0.339843 -1.383647,0.606862 -0.728236,0.242746 -1.456471,0.242746 -0.582588,0 -1.043804,-0.121373 -0.461216,-0.0971 -0.873882,-0.315569 -0.388393,-0.242745 -0.75251,-0.534039 -0.364118,-0.291294 -0.728236,-0.655412 -0.412666,-0.412666 -0.655411,-0.946706 -0.242746,-0.558313 -0.364118,-1.140902 -0.0971,-0.606862 -0.121373,-1.213725 0,-0.606863 0,-1.189451 v -7.69502 h 2.961491 z m 8.374706,-7.452275 V 81.537785 H 71.705069 L 71.389501,80.129863 V 67.846961 Z"
             style="letter-spacing:-2.4061px;fill:#f9f9f9"
             id="path117771" />
          <path
             d="m 91.953878,81.42769 h -2.96149 V 67.773939 h 2.96149 z m 0.26702,-18.011332 q 0,0.726264 -0.509765,1.234648 -0.509765,0.484176 -1.238,0.484176 -0.728235,0 -1.238,-0.508385 -0.48549,-0.508385 -0.48549,-1.210439 0,-0.726263 0.509764,-1.234647 0.509765,-0.508385 1.213726,-0.508385 0.728235,0 1.238,0.508385 0.509765,0.508384 0.509765,1.234647 z"
             style="letter-spacing:-2.61408px;fill:#f9f9f9;stroke-width:0.290898"
             id="path117773" />
          <path
             d="m 96.379406,77.039109 q 0,0.866318 0.218471,1.375917 0.21847,0.48412 0.606862,0.738919 0.388393,0.229321 0.873883,0.30576 0.509765,0.07644 1.092353,0.07644 v 1.885518 q -0.315569,0.05096 -0.655412,0.07644 -0.26702,0.02549 -0.631137,0.02549 -0.364118,0.02548 -0.728236,0.02548 -0.364117,0 -0.728235,-0.02548 -0.364118,-0.02549 -0.655412,-0.07644 -0.825333,-0.17836 -1.286549,-0.764399 -0.461216,-0.58604 -0.703961,-1.299478 -0.242745,-0.73892 -0.315568,-1.426879 -0.04855,-0.687959 -0.04855,-1.070158 v -0.305763 -14.95674 h 2.96149 z"
             style="letter-spacing:-2.38125px;fill:#f9f9f9;stroke-width:0.298438"
             id="path117775" />
          <path
             d="m 99.581293,71.645062 q 0,-0.922432 0.339843,-1.650667 0.339844,-0.75251 0.946704,-1.262275 0.60686,-0.534039 1.35937,-0.825333 0.77679,-0.315569 1.60212,-0.388392 v 2.427451 q -0.63113,0.121372 -0.99525,0.509764 -0.33985,0.388393 -0.33985,1.092353 0,0.582589 0.36412,0.946706 0.38839,0.339844 0.97098,0.606863 v 2.597373 q -0.41266,-0.121373 -0.84961,-0.26702 -0.41266,-0.169921 -0.82533,-0.364117 -1.28655,-0.679687 -1.94196,-1.432197 -0.631137,-0.752509 -0.631137,-1.990509 z m 8.107687,-1.01953 q -0.65541,-0.339843 -1.40792,-0.509765 -0.72824,-0.169921 -1.45647,-0.21847 V 67.49412 q 1.09235,0.04855 2.01478,0.315569 0.92243,0.242745 1.79632,0.801059 z m -6.82114,7.743569 q 0.48549,0.339843 1.1409,0.631137 0.67969,0.291295 1.69922,0.291295 h 0.12137 v 2.257529 q -0.60686,0 -1.11663,-0.04855 -0.50976,-0.02427 -1.01952,-0.145647 -0.48549,-0.145647 -0.99526,-0.388392 -0.50976,-0.242745 -1.068078,-0.631137 z m 3.95675,-4.879177 q 0.72823,0.242746 1.48074,0.53404 0.75251,0.291294 1.35938,0.728235 0.63113,0.436941 1.01952,1.092353 0.41267,0.631137 0.41267,1.602118 0,0.946706 -0.33984,1.650667 -0.33984,0.70396 -0.92243,1.213725 -0.55832,0.509765 -1.3351,0.801059 -0.77679,0.291294 -1.67494,0.388392 v -2.306078 q 0.82533,-0.145648 1.26227,-0.509765 0.46122,-0.388392 0.46122,-1.01953 0,-0.631137 -0.50977,-0.97098 -0.48549,-0.364118 -1.21372,-0.631137 z"
             style="letter-spacing:-2.38125px;fill:#f9f9f9"
             id="path117777" />
        </g>
        <path
           d="m 82.764522,58.633605 c 0.30977,-0.0026 0.765,-0.07294 1.07708,-0.167261 0.50065,-0.150323 0.85463,-0.354018 1.12163,-0.6458 0.25274,-0.278748 0.36769,-0.564613 0.39082,-0.976488 l 0.006,-0.09499 1.3992,-3.86e-4 c 0.76918,-0.0012 1.40893,-8.13e-4 1.42196,1.66e-4 0.0125,-8.13e-4 0.0207,-0.03281 0.0189,-0.07915 -0.002,-0.04331 -0.0075,-0.709068 0.0038,-0.710684 0.493965,-0.0035 3.468733,-0.0031 3.478613,0.0012 0,0 9.01e-4,0.664563 0.0019,0.697261 3.6e-4,0.03266 -3.2e-4,0.06647 10e-4,0.07518 -0.002,0.0091 0.85796,0.01626 1.90725,0.01673 1.3992,-3.87e-4 1.92045,0.0048 1.95502,0.02048 0.0426,0.01963 0.0472,0.04252 0.0465,0.228964 5e-4,0.113934 0.005,0.793314 0.008,1.509544 0.007,1.002179 2.9e-4,1.304529 -0.0229,1.307021 -0.0189,0.0026 -0.89426,0.0031 -1.94848,3.68e-4 -1.05527,-0.0016 -1.91972,0.0019 -1.92333,0.0085 -0.005,0.01064 0.0251,5.703276 0.0634,12.536657 0.006,0.944822 0.005,1.727181 -5.3e-4,1.737862 -0.008,0.01909 -0.27461,0.02033 -2.89668,0.01152 -0.45506,-0.0012 -0.57548,-0.007 -0.57544,-0.02485 1.3e-4,-0.01291 -0.017,-3.097315 -0.0395,-6.855016 -0.037,-6.76617 -0.0402,-6.996658 -0.0417,-7.279966 l -2.9e-4,-0.14469 -0.76168,-0.0019 c -1.86999,-0.0016 -4.74116,-0.0076 -4.8165,-0.0092 l -0.084,-0.0023 -0.003,-0.545706 c -0.002,-0.382423 0.006,-0.556054 0.0271,-0.579024 0.0252,-0.02756 0.0549,-0.032 0.18702,-0.03397 z"
           id="path47632"
           style="fill:#ff000c;fill-opacity:1;stroke:none;stroke-width:0.00163515"
           sodipodi:nodetypes="ccccccccccccccccccccccccccccccccc" />
      </g>
    </g>
  </g>
</svg>
