<?xml version="1.0" encoding="UTF-8" standalone="no"?>
<!-- Created with Inkscape (http://www.inkscape.org/) -->

<svg
   width="1920"
   height="1080"
   viewBox="0 0 508 285.75"
   version="1.1"
   id="svg5"
   inkscape:version="1.1 (c68e22c387, 2021-05-23)"
   sodipodi:docname="44.svg"
   xmlns:inkscape="http://www.inkscape.org/namespaces/inkscape"
   xmlns:sodipodi="http://sodipodi.sourceforge.net/DTD/sodipodi-0.dtd"
   xmlns="http://www.w3.org/2000/svg"
   xmlns:svg="http://www.w3.org/2000/svg">
  <sodipodi:namedview
     id="namedview7"
     pagecolor="#ffffff"
     bordercolor="#666666"
     borderopacity="1.0"
     inkscape:pageshadow="2"
     inkscape:pageopacity="0.0"
     inkscape:pagecheckerboard="0"
     inkscape:document-units="px"
     showgrid="false"
     showguides="true"
     inkscape:guide-bbox="true"
     inkscape:zoom="0.47656051"
     inkscape:cx="976.79096"
     inkscape:cy="590.69099"
     inkscape:window-width="1920"
     inkscape:window-height="1001"
     inkscape:window-x="-9"
     inkscape:window-y="-9"
     inkscape:window-maximized="1"
     inkscape:current-layer="layer1" />
  <defs
     id="defs2" />
  <g
     inkscape:label="Calque 1"
     inkscape:groupmode="layer"
     id="layer1">
    <path
       d="m 60.162045,66.675922 c -0.561366,1.090625 -4.116614,7.854938 -7.8902,15.035908 -3.773561,7.180984 -14.14306,26.88574 -23.03121,43.80882 -18.649509,35.47596 -21.17561,40.29187 -25.8223975,49.12714 l -3.41492273,6.48249 v 1.50727 1.51952 H 38.206748 76.410201 v 18.68768 18.68767 h 1.684072 c 1.746435,0 1.263038,0.049 27.085457,-3.00227 17.51121,-2.07097 20.20884,-2.38958 20.2868,-2.38958 0.0313,0 0.0624,-7.19321 0.0624,-15.99175 v -15.99175 h 9.27796 c 5.099,0 9.278,-0.049 9.278,-0.098 0,-0.0613 1.68405,-7.36478 3.74237,-16.2491 3.41492,-14.70505 3.74237,-16.26133 3.74237,-17.4745 V 148.9875 H 138.54927 125.52892 V 106.83296 64.678464 H 93.375651 61.206808 Z m 19.366792,64.849288 v 17.46226 h -9.200011 c -5.052202,0 -9.200011,-0.0367 -9.200011,-0.0858 0,-0.11026 18.290872,-34.83874 18.353249,-34.83874 0.03131,0 0.04677,7.85495 0.04677,17.46227 z"
       id="path23"
       style="fill:#000000;stroke:none;stroke-width:0.0138233" />
    <path
       d="m 416.60741,66.077406 c -0.56136,1.09063 -4.11661,7.85494 -7.8902,15.03591 -3.77356,7.18099 -14.14305,26.885744 -23.0312,43.808824 -18.64951,35.47596 -21.17562,40.29187 -25.8224,49.12714 l -3.41493,6.48249 v 1.50727 1.51952 h 38.20344 38.20345 v 18.68768 18.68767 h 1.68407 c 1.74644,0 1.26304,0.049 27.08546,-3.00227 17.51121,-2.07097 20.20884,-2.38958 20.2868,-2.38958 0.0313,0 0.0624,-7.19321 0.0624,-15.99175 v -15.99175 h 9.27796 c 5.099,0 9.278,-0.049 9.278,-0.098 0,-0.0613 1.68405,-7.36478 3.74237,-16.2491 3.41492,-14.70505 3.74237,-16.26133 3.74237,-17.4745 v -1.34797 H 494.99464 481.97429 V 106.23445 64.079956 h -32.15327 -32.16884 z m 19.3668,64.849294 v 17.46226 h -9.20001 c -5.05221,0 -9.20002,-0.0367 -9.20002,-0.0858 0,-0.11026 18.29088,-34.83874 18.35325,-34.83874 0.0313,0 0.0468,7.85495 0.0468,17.46227 z"
       id="path23-3"
       style="fill:#000000;stroke:none;stroke-width:0.0138233" />
    <rect
       style="fill:none;stroke-width:0.264583"
       id="rect31"
       width="93.886833"
       height="74.114037"
       x="415.78085"
       y="219.58336" />
  </g>
</svg>
