<?xml version="1.0" encoding="UTF-8" standalone="no"?>
<svg xmlns:osb="http://www.openswatchbook.org/uri/2009/osb" xmlns:dc="http://purl.org/dc/elements/1.1/" xmlns:cc="http://creativecommons.org/ns#" xmlns:rdf="http://www.w3.org/1999/02/22-rdf-syntax-ns#" xmlns:svg="http://www.w3.org/2000/svg" xmlns="http://www.w3.org/2000/svg" width="66.004898mm" height="65.721069mm" viewBox="0 0 66.004898 65.721069" version="1.1" id="svg8">
  <defs id="defs2">
    <linearGradient id="linearGradient2433" osb:paint="solid">
      <stop style="stop-color:#803300;stop-opacity:1;" offset="0" id="stop2431"/>
    </linearGradient>
  </defs>
  <metadata id="metadata5">
    <rdf:RDF>
      <cc:Work rdf:about="">
        <dc:format>image/svg+xml</dc:format>
        <dc:type rdf:resource="http://purl.org/dc/dcmitype/StillImage"/>
        <dc:title/>
      </cc:Work>
    </rdf:RDF>
  </metadata>
  <path id="circle861" d="m 35.172552,0.96706294 c -0.147018,0.002829 -0.32204,0.0369276 -0.519866,0.0754476 -0.527566,0.1027201 -1.121974,0.3931818 -1.650545,0.7658448 -0.325422,0.230692 -0.617109,0.4850968 -0.853694,0.7348388 -0.525275,0.5544791 -0.706578,1.2625589 -1.727028,1.3642578 -1.002094,0.2256949 -0.587068,-0.9274381 -0.753441,-2.2887492 -0.01918,-0.1569949 -0.179562,-0.5071949 -0.26975,-0.5022948 -0.171599,0.0093 -0.37986,0.098736 -0.625285,0.2046386 -0.810617,0.34978 -1.641578,1.1994019 -2.119251,1.9714558 C 26.256502,3.9344712 26.217885,4.664854 25.240858,4.9688859 24.303824,5.3910548 24.483761,4.1780487 24.055401,2.8816748 24.005961,2.7320699 23.781092,2.4204351 23.694182,2.4424251 23.528667,2.484344 23.342883,2.6119202 23.123675,2.7623022 22.400929,3.2581131 21.746704,4.2491666 21.421453,5.0985937 21.151531,5.8035236 21.247888,6.5344953 20.337798,7.0157893 19.48808,7.6066603 19.44457,6.3737808 18.785955,5.1730077 18.7099,5.0343539 18.431326,4.7672747 18.349806,4.8045548 18.19442,4.8756618 18.034818,5.0349701 17.845961,5.2226171 17.224205,5.840385 16.753538,6.9370583 16.580922,7.8338273 16.437727,8.5777454 16.659237,9.2864895 15.839882,9.9205214 15.099339,10.652337 14.845325,9.4385223 13.987798,8.3640274 13.888737,8.2399093 13.567305,8.0233526 13.493255,8.0741227 13.35204,8.1709805 13.221307,8.35562 13.066924,8.5733171 c -0.507843,0.7161101 -0.786709,1.8811509 -0.806669,2.7956949 -0.01658,0.75914 0.320439,1.42242 -0.383956,2.184879 C 11.26654,14.39908 10.813925,13.243929 9.7885714,12.326576 9.6701145,12.220595 9.3166802,12.061018 9.25217,12.123488 c -0.1230151,0.119173 -0.2206165,0.323256 -0.3364135,0.56379 -0.3809119,0.791249 -0.4614418,1.986066 -0.328662,2.889229 0.110349,0.750553 0.5523976,1.345217 -0.012404,2.211751 -0.4574572,0.931256 -1.0955634,-0.126163 -2.2577433,-0.855245 -0.134234,-0.0842 -0.508332,-0.181437 -0.5612059,-0.109037 -0.100789,0.138058 -0.1625475,0.355171 -0.2356445,0.611332 -0.2406954,0.843443 -0.1159034,2.029964 0.1700154,2.892847 0.2378766,0.717896 0.7733589,1.221321 0.3731038,2.167309 -0.2835619,0.990296 -1.094713,0.06861 -2.3626463,-0.4408 -0.1463709,-0.05886 -0.5298187,-0.08833 -0.5689576,-0.0078 -0.074538,0.153518 -0.096693,0.378268 -0.12299,0.642855 -0.086748,0.872705 0.2489302,2.011796 0.6888469,2.805513 0.3661585,0.660709 0.9837092,1.051187 0.7730795,2.051553 -0.087806,1.02253 -1.0595735,0.274119 -2.4019206,0.01603 -0.1548412,-0.02977 -0.5368967,0.01532 -0.5601726,0.10232 -0.044276,0.165568 -0.023582,0.390988 0.00103,0.656807 0.081355,0.878718 0.6322449,1.932918 1.2273153,2.628265 0.4949706,0.578381 1.1836851,0.8349 1.1875245,1.863968 0.00209,0.01677 0.00423,0.03316 0.00568,0.04909 0.077917,0.959977 -1.020395,0.44186 -2.3781493,0.466119 -0.1593385,0.0029 -0.526457,0.127035 -0.530717,0.218075 -0.00813,0.173104 0.060388,0.391655 0.1415934,0.648539 0.268408,0.84913 1.0345072,1.765255 1.7569987,2.318205 0.6017383,0.460539 1.323679,0.568976 1.5306559,1.570448 0.3282964,0.9721 -0.8597283,0.676701 -2.1921142,0.979268 -0.1537106,0.03491 -0.4855512,0.229534 -0.4718058,0.318328 0.026188,0.169034 0.1358539,0.366215 0.2651,0.598929 0.4265027,0.767943 1.3519172,1.510699 2.1667929,1.911511 0.6767616,0.332881 1.4105554,0.3023 1.8071248,1.248503 0.5107712,0.895726 -0.7174275,0.829725 -1.9693887,1.378209 -0.144526,0.06332 -0.4345673,0.317082 -0.4046265,0.401527 0.057076,0.160909 0.2014659,0.333541 0.3715535,0.53795 0.5603312,0.673405 1.6091123,1.235912 2.4861531,1.484149 0.7275798,0.205936 1.4503532,0.0453 2.0117636,0.912606 0.6654506,0.79734 -0.5628751,0.94864 -1.7037722,1.711523 -0.1317686,0.08812 -0.3740055,0.390179 -0.3296955,0.468189 0.08453,0.14874 0.2572417,0.293626 0.4609537,0.465603 0.670315,0.565893 1.8061905,0.94103 2.7155965,1.036629 0.754566,0.07932 1.443215,-0.202163 2.145089,0.56224 0.792453,0.677241 -0.396188,1.033637 -1.395264,1.979726 -0.115415,0.109299 -0.303903,0.447789 -0.247013,0.517279 0.108548,0.132535 0.303687,0.246967 0.533817,0.382408 0.756904,0.445436 1.941671,0.62553 2.85409,0.568438 0.757795,-0.04741 1.38907,-0.439134 2.2071,0.197922 0.892015,0.535599 -0.218119,1.083508 -1.044381,2.181778 -0.09544,0.126873 -0.224796,0.491971 -0.157096,0.550873 0.129131,0.112302 0.340824,0.192043 0.590145,0.286803 0.820447,0.311846 2.015705,0.290081 2.902148,0.0801 0.737107,-0.174611 1.288588,-0.665771 2.198316,-0.180866 0.964408,0.372419 -0.02946,1.099801 -0.65164,2.319237 -0.07184,0.140816 -0.135145,0.520681 -0.05839,0.566891 0.146286,0.08805 0.36759,0.130352 0.628903,0.18035 0.861085,0.164759 2.028688,-0.06544 2.86029,-0.428913 0.692142,-0.302517 1.141102,-0.881311 2.1177,-0.573609 1.009905,0.187542 0.171068,1.08113 -0.21549,2.390553 -0.04461,0.151106 -0.03702,0.53549 0.04703,0.566891 0.160025,0.05972 0.385533,0.06091 0.65164,0.06201 0.878681,0.0037 1.979717,-0.440071 2.727482,-0.95808 0.622348,-0.431122 0.947679,-1.08577 1.965772,-0.980302 1.028647,-0.01942 0.38281,1.028377 0.263549,2.396236 -0.01376,0.157715 0.07065,0.535387 0.160197,0.549836 0.170352,0.02745 0.39361,-0.01635 0.657326,-0.06821 0.50936,-0.100173 1.082064,-0.375578 1.5968,-0.731737 0.34603,-0.240855 0.655873,-0.509743 0.904854,-0.773596 0.524092,-0.555398 0.70377,-1.264203 1.723927,-1.367875 1.001598,-0.227629 0.588647,0.926343 0.757576,2.287199 0.01947,0.15694 0.180615,0.507394 0.270785,0.502295 0.171559,-0.0096 0.380079,-0.09984 0.625285,-0.20619 0.809868,-0.351231 1.638842,-1.202168 2.115116,-1.975074 0.396017,-0.642655 0.433213,-1.373193 1.409731,-1.678967 0.936332,-0.423846 0.758431,0.789488 1.189075,2.085144 0.0497,0.149522 0.275394,0.460883 0.362252,0.438732 0.165441,-0.0422 0.351043,-0.170153 0.569991,-0.32091 0.721876,-0.497041 1.374233,-1.489393 1.698088,-2.33939 0.268748,-0.705398 0.171186,-1.436455 1.080556,-1.919264 0.848812,-0.592294 0.894347,0.640964 1.554943,1.840714 0.07627,0.138539 0.355177,0.404839 0.436666,0.367419 0.155268,-0.07136 0.314777,-0.230621 0.503327,-0.418579 0.620768,-0.618781 1.089695,-1.716209 1.260906,-2.613276 0.142023,-0.744164 -0.08098,-1.452406 0.737423,-2.087729 0.739445,-0.732983 0.995979,0.480205 1.855184,1.553395 0.09926,0.123971 0.42104,0.339752 0.49506,0.288872 0.141078,-0.09708 0.271245,-0.281771 0.425296,-0.499713 0.50673,-0.716904 0.783966,-1.882156 0.802534,-2.796728 0.0154,-0.759169 -0.322884,-1.421868 0.380339,-2.185397 0.608457,-0.846106 1.06304,0.307935 2.089795,1.223698 0.118621,0.105791 0.472033,0.265144 0.536404,0.202572 0.122824,-0.119361 0.219956,-0.323596 0.335377,-0.564305 0.379664,-0.791835 0.458724,-1.986826 0.32453,-2.889748 -0.111053,-0.750363 -0.554101,-1.344374 0.0093,-2.21175 0.455951,-0.931921 1.096002,0.124418 2.259295,0.851628 0.134356,0.08399 0.508466,0.180483 0.561205,0.108003 0.100568,-0.138216 0.161425,-0.355061 0.234093,-0.611333 0.23935,-0.843817 0.113173,-2.030468 -0.174149,-2.892846 -0.239056,-0.717484 -0.775345,-1.219674 -0.376721,-2.166276 0.281858,-0.990716 1.094404,-0.07057 2.363163,0.436666 0.146462,0.05849 0.529918,0.08684 0.568957,0.0062 0.07432,-0.153646 0.09611,-0.377709 0.121957,-0.64234 0.08527,-0.872865 -0.252203,-2.011531 -0.693497,-2.80448 -0.367344,-0.660064 -0.985469,-1.049253 -0.776697,-2.050002 0.0859,-1.022691 1.058518,-0.276307 2.401403,-0.02066 0.154903,0.02949 0.537022,-0.01632 0.560173,-0.103351 0.0441,-0.165664 0.02304,-0.39101 -0.0021,-0.656807 -0.08297,-0.878663 -0.635985,-1.93189 -1.232482,-2.626199 -0.496163,-0.577506 -1.184945,-0.832699 -1.191144,-1.861899 h -0.0093 c -0.03518,-0.89366 1.049475,-0.391189 2.382282,-0.41238 0.15938,-0.0026 0.527034,-0.126508 0.531233,-0.217556 0.0085,-0.173128 -0.05979,-0.391454 -0.14056,-0.648542 -0.26684,-0.849815 -1.031362,-1.767472 -1.752864,-2.321821 -0.600927,-0.461714 -1.322444,-0.571672 -1.527554,-1.573546 -0.326493,-0.972712 0.8612,-0.674976 2.194182,-0.975135 0.15377,-0.03463 0.48592,-0.228464 0.472321,-0.317293 -0.0259,-0.16909 -0.135231,-0.367009 -0.264065,-0.599964 -0.425162,-0.768751 -1.349523,-1.512912 -2.163694,-1.915129 -0.676177,-0.33405 -1.409602,-0.304786 -1.80454,-1.251603 -0.50922,-0.896532 0.718619,-0.828225 1.971455,-1.374593 0.144627,-0.06308 0.434944,-0.315992 0.405144,-0.400492 -0.05681,-0.161003 -0.20078,-0.334297 -0.37052,-0.538985 -0.559218,-0.674336 -1.606966,-1.238639 -2.48357,-1.488281 -0.727223,-0.2071 -1.450205,-0.04757 -2.010214,-0.915707 -0.664152,-0.798346 0.564303,-0.947886 1.706356,-1.708939 0.131911,-0.0879 0.374433,-0.389075 0.330213,-0.467155 -0.0843,-0.148869 -0.256998,-0.294346 -0.460436,-0.466639 -0.669406,-0.566938 -1.804283,-0.943763 -2.713529,-1.040763 -0.754423,-0.08048 -1.443876,0.199601 -2.144572,-0.565857 -0.791404,-0.678444 0.398361,-1.032595 1.398881,-1.97714 0.115578,-0.109122 0.304318,-0.447701 0.247528,-0.517281 C 55.76576,11.035814 55.571233,10.921375 55.34132,10.785595 54.585104,10.338987 53.400274,10.15734 52.48775,10.21302 51.729867,10.259261 51.097727,10.649824 50.280648,10.011481 49.389429,9.4744836 50.501163,8.9282659 51.329163,7.8312529 51.424823,7.7045281 51.55385,7.3393922 51.486259,7.2803822 51.357299,7.167875 51.146328,7.0877044 50.897149,6.9925444 50.077184,6.6794042 48.881291,6.6997401 47.994482,6.9083119 47.257075,7.0817817 46.705164,7.5714622 45.796167,7.0850454 44.832296,6.7110261 45.827227,5.9858231 46.451424,4.7673573 46.523576,4.6266543 46.587473,4.2467967 46.510852,4.2004669 46.364701,4.1121688 46.143184,4.0695026 45.88195,4.0190826 45.021137,3.8529086 43.853382,4.081289 43.021143,4.4433459 42.328475,4.744683 41.878508,5.3222653 40.90241,5.0128202 39.8928,4.8234794 40.733167,3.9315253 41.122033,2.6227853 c 0.04487,-0.151027 0.03799,-0.5353404 -0.04599,-0.5668904 -0.159914,-0.06007 -0.38503,-0.061445 -0.651124,-0.063045 -0.878625,-0.00526 -1.980882,0.4363333 -2.72955,0.9529133 -0.623104,0.4299392 -0.949494,1.0841254 -1.96732,0.9766845 -1.028599,0.017407 -0.380762,-1.0293149 -0.2589,-2.3967528 0.01405,-0.157672 -0.06965,-0.53521724 -0.159163,-0.54983722 -0.04257,-0.006945 -0.08846,-0.009728 -0.137459,-0.008785 z M 33.002657,30.314109 a 2.5489902,2.5489902 0 0 1 2.548683,2.549199 2.5489902,2.5489902 0 0 1 -2.548683,2.548681 2.5489902,2.5489902 0 0 1 -2.549197,-2.548681 2.5489902,2.5489902 0 0 1 2.549197,-2.549199 z" style="opacity:1;vector-effect:none;fill:#999999;fill-opacity:1;stroke:#000000;stroke-width:0.50006199;stroke-linecap:butt;stroke-linejoin:miter;stroke-miterlimit:4;stroke-dasharray:none;stroke-dashoffset:0;stroke-opacity:1;paint-order:stroke fill markers"/>
  <circle r="4.7081947" cy="32.86322" cx="33.002583" id="path70-3" style="opacity:1;vector-effect:none;fill:none;fill-opacity:1;stroke:#000000;stroke-width:0.08118929;stroke-linecap:butt;stroke-linejoin:miter;stroke-miterlimit:4;stroke-dasharray:none;stroke-dashoffset:0;stroke-opacity:1;paint-order:stroke fill markers"/>
  <path id="path1158" d="m 45.188995,3.9642961 c -0.255429,0.00388 -0.520999,0.0315 -0.784966,0.075964 L 33.939036,30.494975 a 2.5489902,2.5489902 0 0 1 1.060915,0.78445 L 56.481329,14.244288 c -0.03603,-0.0046 -0.07366,-0.01173 -0.109037,-0.0155 -0.754423,-0.08048 -1.443876,0.1996 -2.144573,-0.565857 -0.791403,-0.678444 0.398362,-1.032596 1.398882,-1.977141 0.115578,-0.109122 0.304318,-0.447701 0.247528,-0.517281 -0.108344,-0.132703 -0.302871,-0.247142 -0.532784,-0.382922 -0.756216,-0.446607 -1.941046,-0.628255 -2.85357,-0.572575 -0.757884,0.04624 -1.390023,0.436804 -2.207102,-0.201538 -0.89122,-0.5369981 0.220515,-1.0832158 1.048515,-2.1802288 0.09566,-0.1267249 0.224687,-0.4918607 0.157096,-0.5508707 C 51.357324,7.1678663 51.146353,7.0876957 50.897174,6.9925356 50.077209,6.6793954 48.881316,6.6997313 47.994507,6.9083032 47.2571,7.081773 46.705189,7.5714532 45.796192,7.0850366 44.83232,6.7110174 45.827252,5.9858143 46.451449,4.7673486 46.523601,4.6266455 46.587497,4.246788 46.510877,4.2004581 46.364726,4.1121601 46.143209,4.0694939 45.881975,4.0190738 45.666771,3.9775303 45.432528,3.9605972 45.188995,3.9642961 Z M 31.008466,34.45029 9.4919486,51.513848 c 0.057375,0.008 0.1162545,0.01791 0.1720826,0.02376 0.7545658,0.07932 1.4432148,-0.202163 2.1450888,0.562239 0.792453,0.677241 -0.396188,1.033637 -1.395264,1.979726 -0.115415,0.109297 -0.303903,0.447789 -0.247013,0.517279 0.108548,0.132535 0.303687,0.246968 0.533818,0.382408 0.756903,0.445436 1.94167,0.62553 2.854089,0.568439 0.757795,-0.04741 1.38907,-0.439135 2.2071,0.197921 0.892015,0.535599 -0.218119,1.083509 -1.044381,2.181778 -0.09544,0.126873 -0.224796,0.491972 -0.157096,0.550873 0.129131,0.1123 0.340824,0.192043 0.590145,0.286803 0.820447,0.311846 2.015705,0.290081 2.902148,0.0801 0.737107,-0.174612 1.288588,-0.665771 2.198316,-0.180867 0.964408,0.37242 -0.02946,1.099804 -0.65164,2.319237 -0.07184,0.140817 -0.135144,0.520681 -0.05839,0.566891 0.146286,0.08805 0.367589,0.130352 0.628902,0.180351 0.424938,0.08131 0.924604,0.06566 1.421618,-0.01394 L 32.069382,35.23267 a 2.5489902,2.5489902 0 0 1 -1.060916,-0.78238 z" style="opacity:0.197;vector-effect:none;fill:#ffffff;fill-opacity:1;stroke:none;stroke-width:0.26458332px;stroke-linecap:butt;stroke-linejoin:miter;stroke-miterlimit:4;stroke-dasharray:none;stroke-dashoffset:0;stroke-opacity:1;paint-order:stroke fill markers"/>
  <path id="path1160" d="m 35.172552,0.96706294 c -0.147018,0.002829 -0.32204,0.0369276 -0.519866,0.0754476 -0.527566,0.1027201 -1.121974,0.3931818 -1.650545,0.7658448 -0.325422,0.230692 -0.617109,0.4850968 -0.853694,0.7348388 -0.525275,0.5544791 -0.706578,1.2625589 -1.727028,1.3642578 -1.002091,0.2256949 -0.587068,-0.9274381 -0.753441,-2.2887492 -0.01918,-0.1569949 -0.179562,-0.5071949 -0.26975,-0.5022948 -0.171599,0.0093 -0.37986,0.098736 -0.625285,0.2046386 -0.452395,0.1952077 -0.908844,0.54826 -1.308965,0.9544637 l 5.084961,28.0804558 a 2.5489902,2.5489902 0 0 1 0.453718,-0.04186 2.5489902,2.5489902 0 0 1 0.93586,0.180866 L 44.404029,4.0402603 C 43.912975,4.122976 43.427124,4.2667294 43.021168,4.4433364 42.3285,4.7446735 41.878533,5.3222557 40.902435,5.0128107 39.892825,4.8234699 40.733192,3.9315158 41.122058,2.6227758 c 0.04487,-0.151027 0.03799,-0.5353404 -0.04599,-0.5668904 -0.159914,-0.06007 -0.38503,-0.061445 -0.651124,-0.063045 -0.878625,-0.00526 -1.980882,0.4363335 -2.72955,0.9529134 -0.623104,0.4299391 -0.949494,1.0841254 -1.96732,0.9766844 -1.028599,0.017407 -0.380762,-1.0293148 -0.2589,-2.3967527 0.01405,-0.157672 -0.06965,-0.53521729 -0.159163,-0.54983724 -0.04257,-0.006945 -0.08846,-0.009728 -0.137459,-0.008785 z M 32.069382,35.23267 21.591468,61.716843 c 0.510124,-0.08171 1.017459,-0.23086 1.438672,-0.414962 0.692142,-0.302517 1.141102,-0.881311 2.1177,-0.573609 1.009905,0.187542 0.171068,1.08113 -0.21549,2.390553 -0.04461,0.151106 -0.03702,0.53549 0.04703,0.566891 0.160025,0.05972 0.385533,0.06091 0.65164,0.06201 0.878681,0.0037 1.979717,-0.440071 2.727482,-0.95808 0.622348,-0.431123 0.947679,-1.085771 1.965772,-0.980302 1.028647,-0.01942 0.38281,1.028377 0.263549,2.396236 -0.01376,0.157715 0.07065,0.535387 0.160197,0.549835 0.170352,0.02745 0.39361,-0.01635 0.657326,-0.06821 0.509357,-0.100174 1.082064,-0.375578 1.5968,-0.731737 0.34603,-0.240855 0.655873,-0.509743 0.904854,-0.773596 0.524092,-0.555398 0.70377,-1.264203 1.723927,-1.367875 1.001599,-0.227629 0.588648,0.926343 0.757576,2.287199 0.01947,0.15694 0.180615,0.507394 0.270785,0.502295 0.171559,-0.0096 0.380079,-0.09984 0.625285,-0.20619 0.435102,-0.188698 0.873979,-0.52348 1.262454,-0.911055 l -5.09116,-28.116115 a 2.5489902,2.5489902 0 0 1 -0.453205,0.04186 2.5489902,2.5489902 0 0 1 -0.933275,-0.179319 z" style="opacity:0.12000002;vector-effect:none;fill:#ffffff;fill-opacity:1;stroke:none;stroke-width:0.26458332px;stroke-linecap:butt;stroke-linejoin:miter;stroke-miterlimit:4;stroke-dasharray:none;stroke-dashoffset:0;stroke-opacity:1;paint-order:stroke fill markers"/>
  <path d="m 63.533692,32.863244 v 0 c 0,0 0,0 0,0 z m 0.445029,-0.381794 c 0.399402,0.116774 0.798565,0.239067 1.197417,0.366929 -0.05326,-0.265715 -0.109993,-0.5295 -0.170196,-0.791331 -0.3898,-0.146349 -0.780148,-0.286044 -1.170956,-0.419158 0.05212,0.279413 0.100079,0.560615 0.143735,0.84356 z m -0.674444,-5.641666 c 0.410334,0.03231 0.821084,0.06964 1.232186,0.112047 -0.103931,-0.245442 -0.21086,-0.488732 -0.320699,-0.729849 -0.406826,-0.06307 -0.813369,-0.120037 -1.219542,-0.170989 0.106328,0.260819 0.209045,0.523763 0.308055,0.788791 z M 61.547226,21.46487 c 0.409472,-0.04587 0.820024,-0.08718 1.231604,-0.123926 -0.147783,-0.220659 -0.298024,-0.438943 -0.450636,-0.654832 -0.411704,0.01486 -0.822277,0.03524 -1.231646,0.06109 0.153266,0.236773 0.303517,0.47601 0.450678,0.717669 z M 58.83579,16.484941 c 0.39683,-0.117724 0.795411,-0.231403 1.195676,-0.340989 -0.184772,-0.191363 -0.371467,-0.38013 -0.560017,-0.56628 -0.404398,0.08741 -0.806853,0.179797 -1.20727,0.277077 0.192973,0.207276 0.383537,0.417353 0.571611,0.630192 z m -3.537596,-4.456709 c 0.372412,-0.183283 0.747242,-0.363014 1.124426,-0.539141 -0.214921,-0.157557 -0.431223,-0.312295 -0.648843,-0.464192 -0.38495,0.154606 -0.767119,0.31362 -1.146413,0.476971 0.225449,0.172328 0.449091,0.347795 0.67083,0.526362 z m -4.2355,-3.805255 c 0.336209,-0.242539 0.675502,-0.482016 1.017815,-0.718382 -0.238197,-0.119239 -0.477263,-0.235435 -0.7171,-0.348571 -0.35333,0.216435 -0.703056,0.436717 -1.049076,0.660773 0.250685,0.131929 0.500176,0.267336 0.748361,0.40618 z M 46.257511,5.197413 C 46.545735,4.901921 46.837708,4.609 47.133377,4.318698 46.878748,4.242288 46.623785,4.169146 46.368583,4.099285 46.059023,4.372186 45.753906,4.648372 45.453329,4.92777 45.722016,5.01384 45.99011,5.103743 46.257511,5.197413 Z M 41.01089,3.079773 c 0.228457,-0.342141 0.461333,-0.682203 0.698571,-1.020138 -0.264213,-0.02907 -0.528216,-0.05465 -0.791932,-0.07672 -0.253624,0.324002 -0.501975,0.650728 -0.744956,0.980104 0.279464,0.03478 0.558935,0.07371 0.838317,0.116754 z M 35.451055,1.998291 c 0.156911,-0.382485 0.31891,-0.763384 0.485936,-1.14264798 -0.266938,0.02279 -0.533135,0.04928 -0.798507,0.0795 C 34.952953,1.304882 34.773531,1.676783 34.600308,2.050775 c 0.283007,-0.02198 0.566619,-0.03946 0.850747,-0.05249 z m -5.702409,0.085818 c 0.07337,-0.406391 0.151995,-0.812871 0.235953,-1.21937598 -0.25605,0.07967 -0.510058,0.16259998 -0.762,0.24870298 -0.10365,0.399916 -0.200938,0.799959 -0.29192,1.200034 0.270711,-0.08039 0.54338,-0.156881 0.817967,-0.229361 z m -5.523092,1.236752 c -0.0079,-0.411367 -0.01108,-0.82349 -0.0093,-1.236308 -0.233501,0.126916 -0.464736,0.256555 -0.693686,0.388833 -0.02308,0.410807 -0.04034,0.820909 -0.05188,1.230211 0.249367,-0.130915 0.501031,-0.258528 0.754948,-0.382736 z m -5.191633,2.254665 c -0.08291,-0.404564 -0.161535,-0.81055 -0.235819,-1.217897 -0.206441,0.167305 -0.410395,0.336799 -0.611841,0.508401 0.05214,0.409537 0.109525,0.817537 0.172087,1.223906 0.222571,-0.174204 0.447776,-0.345708 0.675573,-0.51441 z m -4.731942,3.14434 C 14.150387,8.333887 14.002591,7.94582 13.85864,7.555724 c -0.174868,0.20084 -0.347028,0.403336 -0.516459,0.607407 0.12199,0.396107 0.248666,0.789846 0.379955,1.181121 0.190322,-0.21026 0.383617,-0.418422 0.579843,-0.624386 z m -4.144013,3.905783 C 9.9439946,12.270037 9.7333276,11.911668 9.5260156,11.550604 c -0.138785,0.227523 -0.274639,0.456167 -0.407541,0.685853 0.186476,0.370517 0.377075,0.737833 0.571729,1.101856 0.152623,-0.239084 0.308558,-0.476672 0.4677624,-0.712664 z m -3.4278514,4.53899 c -0.270047,-0.313465 -0.53728,-0.630353 -0.8016506,-0.950604 -0.09819,0.24735 -0.1932263,0.495289 -0.2850891,0.743735 0.2455984,0.332767 0.4947597,0.661501 0.7474117,0.98611 0.109474,-0.260674 0.222597,-0.520454 0.339328,-0.779241 z M 4.146659,22.2086 C 3.8268413,21.949064 3.5093447,21.685436 3.1942193,21.41778 3.1411383,21.678104 3.0914307,21.938484 3.0451172,22.198837 3.3444739,22.481694 3.6468328,22.759685 3.9521207,23.03272 4.0129987,22.757689 4.0778525,22.48295 4.146659,22.2086 Z M 2.5358355,27.629299 C 2.1725497,27.43547 1.8110932,27.236886 1.4515168,27.033605 c -0.00343,0.266446 -0.00332,0.532411 4.207e-4,0.79782 0.3477507,0.220784 0.697942,0.435872 1.0505025,0.645173 0.00685,-0.282154 0.017971,-0.564621 0.033398,-0.847299 z m -0.5085343,5.668454 c -0.3995623,-0.115967 -0.7988817,-0.23745 -1.19789692,-0.364498 0.053725,0.265549 0.1109787,0.529164 0.17166672,0.790827 0.3900174,0.14556 0.7805715,0.284469 1.1715721,0.416803 -0.052687,-0.279268 -0.101169,-0.560324 -0.1453419,-0.843132 z m 0.6849785,5.639793 c -0.4103758,-0.03156 -0.8211752,-0.06813 -1.232338,-0.109789 0.1043677,0.245237 0.2117222,0.488315 0.3219824,0.72922 0.4069323,0.06232 0.8135697,0.11856 1.2198209,0.168781 C 2.9149543,39.465135 2.8117659,39.202386 2.7122797,38.937546 Z m 1.7664174,5.371867 c -0.4094073,0.04655 -0.8199067,0.08858 -1.2314359,0.126008 0.1481522,0.220411 0.2987587,0.438443 0.4517374,0.654081 0.4116861,-0.01556 0.8222466,-0.03662 1.2315885,-0.06315 -0.1536628,-0.236527 -0.3043263,-0.47552 -0.45189,-0.716939 z m 2.7196215,4.975701 c -0.396659,0.118356 -0.795076,0.232672 -1.1951908,0.342897 0.1850838,0.191074 0.3720878,0.379548 0.5609308,0.565404 0.404279,-0.08806 0.806603,-0.181075 1.206876,-0.27899 -0.193302,-0.206978 -0.384208,-0.416763 -0.572616,-0.629311 z m 3.5445914,4.451302 c -0.372129,0.183857 -0.7466834,0.364165 -1.1236024,0.540875 0.21516,0.157226 0.4317084,0.311629 0.6495604,0.46319 0.384715,-0.155199 0.766641,-0.314801 1.145685,-0.478732 -0.225709,-0.171982 -0.449624,-0.347107 -0.671643,-0.525333 z m 4.241325,3.798671 c -0.335818,0.243054 -0.674728,0.483053 -1.01667,0.719945 0.238384,0.118864 0.477621,0.234682 0.71763,0.347443 0.352988,-0.21698 0.702356,-0.437801 1.04801,-0.66239 -0.250882,-0.131532 -0.500572,-0.266544 -0.74897,-0.404998 z m 4.809825,3.017798 c -0.287725,0.295947 -0.579211,0.589333 -0.874395,0.880102 0.254753,0.07599 0.509827,0.14872 0.765139,0.218162 0.309101,-0.273396 0.613751,-0.550071 0.913855,-0.829953 -0.268822,-0.08563 -0.537055,-0.175082 -0.804599,-0.268311 z m 5.250091,2.108694 c -0.227853,0.342541 -0.460133,0.683006 -0.696778,1.02135 0.264269,0.02861 0.528325,0.05374 0.792086,0.07535 0.253054,-0.324445 0.500825,-0.65161 0.74322,-0.981421 -0.27953,-0.03428 -0.559072,-0.07271 -0.838528,-0.115271 z m 5.562121,1.071357 c -0.156199,0.382828 -0.317492,0.764074 -0.483817,1.143685 0.26693,-0.02328 0.533117,-0.05028 0.79847,-0.08101 0.184849,-0.370133 0.36358,-0.742426 0.536104,-1.116803 -0.283003,0.02252 -0.566621,0.04055 -0.850757,0.05412 z m 5.702139,-0.09691 c -0.07259,0.406493 -0.150442,0.813078 -0.233612,1.219695 0.255863,-0.08014 0.509681,-0.163528 0.761434,-0.250087 0.102891,-0.400071 0.199409,-0.800261 0.28964,-1.200478 -0.270542,0.08089 -0.543042,0.157882 -0.817462,0.23087 z m 5.520626,-1.246698 c 0.0086,0.411358 0.01252,0.823479 0.01156,1.2363 0.233273,-0.127317 0.464278,-0.257355 0.692997,-0.390027 0.02236,-0.410851 0.03891,-0.820987 0.04974,-1.230318 -0.249145,0.131347 -0.500589,0.259395 -0.754293,0.384045 z m 5.187995,-2.263431 c 0.08357,0.404447 0.162856,0.810321 0.23781,1.217565 0.206169,-0.167645 0.409848,-0.337473 0.611024,-0.509405 -0.05284,-0.409469 -0.110855,-0.817393 -0.17407,-1.223679 -0.222303,0.174569 -0.447241,0.346442 -0.674764,0.515519 z m 4.727112,-3.151926 c 0.152196,0.385752 0.300601,0.7736 0.445164,1.163484 0.174559,-0.201117 0.346406,-0.403886 0.515512,-0.608224 -0.122608,-0.395927 -0.249886,-0.789477 -0.381786,-1.180557 -0.190003,0.210558 -0.382977,0.419023 -0.57889,0.625297 z m 4.138007,-3.91219 c 0.214516,0.355278 0.42573,0.71332 0.633603,1.074061 0.13843,-0.227738 0.273931,-0.456589 0.406471,-0.68648 -0.187034,-0.370224 -0.378203,-0.737241 -0.573418,-1.100958 -0.152247,0.239316 -0.307816,0.477142 -0.466656,0.713377 z m 3.420679,-4.544218 c 0.270525,0.313023 0.538257,0.629475 0.803124,0.949296 0.0978,-0.247502 0.192434,-0.495586 0.283895,-0.744175 -0.246118,-0.332362 -0.495795,-0.660684 -0.748951,-0.984875 -0.10905,0.26084 -0.221752,0.52079 -0.338068,0.779754 z m 2.575094,-5.048012 c 0.320241,0.258987 0.63817,0.52207 0.953738,0.789188 0.05264,-0.26041 0.101949,-0.520874 0.147783,-0.781306 -0.29982,-0.28234 -0.602644,-0.559808 -0.908394,-0.832313 -0.06042,0.275129 -0.124796,0.549973 -0.193127,0.824431 z m 1.601285,-5.423567 c 0.363646,0.193167 0.725479,0.391099 1.08544,0.593736 0.0031,-0.26647 0.0021,-0.532458 -0.0021,-0.797881 -0.348171,-0.220157 -0.698778,-0.434609 -1.051756,-0.643268 -0.0062,0.282186 -0.01693,0.56469 -0.03187,0.847413 z" style="opacity:1;vector-effect:none;fill:#916f6f;fill-opacity:1;stroke:#000000;stroke-width:0.50006199;stroke-linecap:butt;stroke-linejoin:miter;stroke-miterlimit:4;stroke-dasharray:none;stroke-dashoffset:0;stroke-opacity:1;paint-order:stroke fill markers" id="path899"/>
</svg>