<?xml version="1.0" standalone="no"?>
<!DOCTYPE svg PUBLIC "-//W3C//DTD SVG 1.1//EN"
"http://www.w3.org/Graphics/SVG/1.1/DTD/svg11.dtd">

<svg width="554" height="356" view_box="0 0 554 356"
xmlns="http://www.w3.org/2000/svg"
xmlns:link="http://www.w3.org/1999/xlink">\n\n<desc>Généré par Mocodo 2.3.7 le Sat, 05 Jun 2021 02:15:00</desc>

<rect id="frame" x="0" y="0" width="554" height="356" fill="#f7f7f7" stroke="none" stroke-width="0"/>

<!-- Association POSTER -->
<line x1="357" y1="187" x2="217" y2="187" stroke="#de77ae" stroke-width="2"/>
<text x="254" y="204.0" fill="#4d9221" font-family="Verdana" font-size="12">0,N</text>
<line x1="81" y1="187" x2="217" y2="187" stroke="#de77ae" stroke-width="2"/>
<text x="158" y="204.0" fill="#4d9221" font-family="Verdana" font-size="12">1,1</text>
<g id="association-POSTER">
	<path d="M 235 162 a 14 14 90 0 1 14 14 V 187 h -64 V 176 a 14 14 90 0 1 14 -14" fill="#f1b6da" stroke="#f1b6da" stroke-width="0"/>
	<path d="M 249 187.0 v 11 a 14 14 90 0 1 -14 14 H 199 a 14 14 90 0 1 -14 -14 V 187.0 H 64" fill="#fde0ef" stroke="#fde0ef" stroke-width="0"/>
	<rect x="185" y="162" width="64" height="50" fill="none" rx="14" stroke="#de77ae" stroke-width="2"/>
	<line x1="185" y1="187" x2="249" y2="187" stroke="#de77ae" stroke-width="1"/>
	<text x="192" y="179.7" fill="#000000" font-family="Verdana" font-size="12">POSTER</text>
</g>

<!-- Association RESERVER -->
<line x1="81" y1="187" x2="81" y2="43" stroke="#de77ae" stroke-width="2"/>
<text x="86.0" y="94" fill="#4d9221" font-family="Verdana" font-size="12">0,N</text>
<line x1="217" y1="43" x2="81" y2="43" stroke="#de77ae" stroke-width="2"/>
<text x="142" y="60.0" fill="#4d9221" font-family="Verdana" font-size="12">1,1</text>
<g id="association-RESERVER">
	<path d="M 107 18 a 14 14 90 0 1 14 14 V 43 h -80 V 32 a 14 14 90 0 1 14 -14" fill="#f1b6da" stroke="#f1b6da" stroke-width="0"/>
	<path d="M 121 43.0 v 11 a 14 14 90 0 1 -14 14 H 55 a 14 14 90 0 1 -14 -14 V 43.0 H 80" fill="#fde0ef" stroke="#fde0ef" stroke-width="0"/>
	<rect x="41" y="18" width="80" height="50" fill="none" rx="14" stroke="#de77ae" stroke-width="2"/>
	<line x1="41" y1="43" x2="121" y2="43" stroke="#de77ae" stroke-width="1"/>
	<text x="48" y="35.7" fill="#000000" font-family="Verdana" font-size="12">RESERVER</text>
</g>

<!-- Association ENVOYER -->
<line x1="357" y1="187" x2="502" y2="187" stroke="#de77ae" stroke-width="2"/>
<text x="438" y="204.0" fill="#4d9221" font-family="Verdana" font-size="12">0,N</text>
<line x1="502" y1="43" x2="502" y2="187" stroke="#de77ae" stroke-width="2"/>
<text x="507.0" y="94" fill="#4d9221" font-family="Verdana" font-size="12">1,1</text>
<g id="association-ENVOYER">
	<path d="M 525 162 a 14 14 90 0 1 14 14 V 187 h -74 V 176 a 14 14 90 0 1 14 -14" fill="#f1b6da" stroke="#f1b6da" stroke-width="0"/>
	<path d="M 539 187.0 v 11 a 14 14 90 0 1 -14 14 H 479 a 14 14 90 0 1 -14 -14 V 187.0 H 74" fill="#fde0ef" stroke="#fde0ef" stroke-width="0"/>
	<rect x="465" y="162" width="74" height="50" fill="none" rx="14" stroke="#de77ae" stroke-width="2"/>
	<line x1="465" y1="187" x2="539" y2="187" stroke="#de77ae" stroke-width="1"/>
	<text x="472" y="179.7" fill="#000000" font-family="Verdana" font-size="12">ENVOYER</text>
</g>

<!-- Association APPARTENIR -->
<line x1="81" y1="187" x2="81" y2="322" stroke="#de77ae" stroke-width="2"/>
<text x="86.0" y="289" fill="#4d9221" font-family="Verdana" font-size="12">1,1</text>
<line x1="217" y1="322" x2="81" y2="322" stroke="#de77ae" stroke-width="2"/>
<text x="149" y="339.0" fill="#4d9221" font-family="Verdana" font-size="12">0,N</text>
<g id="association-APPARTENIR">
	<path d="M 113 297 a 14 14 90 0 1 14 14 V 322 h -92 V 311 a 14 14 90 0 1 14 -14" fill="#f1b6da" stroke="#f1b6da" stroke-width="0"/>
	<path d="M 127 322.0 v 11 a 14 14 90 0 1 -14 14 H 49 a 14 14 90 0 1 -14 -14 V 322.0 H 92" fill="#fde0ef" stroke="#fde0ef" stroke-width="0"/>
	<rect x="35" y="297" width="92" height="50" fill="none" rx="14" stroke="#de77ae" stroke-width="2"/>
	<line x1="35" y1="322" x2="127" y2="322" stroke="#de77ae" stroke-width="1"/>
	<text x="42" y="314.7" fill="#000000" font-family="Verdana" font-size="12">APPARTENIR</text>
</g>

<!-- Association RECEVOIR -->
<line x1="357" y1="187" x2="357" y2="43" stroke="#de77ae" stroke-width="2"/>
<text x="362.0" y="94" fill="#4d9221" font-family="Verdana" font-size="12">0,N</text>
<line x1="502" y1="43" x2="357" y2="43" stroke="#de77ae" stroke-width="2"/>
<text x="433" y="60.0" fill="#4d9221" font-family="Verdana" font-size="12">1,1</text>
<g id="association-RECEVOIR">
	<path d="M 382 18 a 14 14 90 0 1 14 14 V 43 h -78 V 32 a 14 14 90 0 1 14 -14" fill="#f1b6da" stroke="#f1b6da" stroke-width="0"/>
	<path d="M 396 43.0 v 11 a 14 14 90 0 1 -14 14 H 332 a 14 14 90 0 1 -14 -14 V 43.0 H 78" fill="#fde0ef" stroke="#fde0ef" stroke-width="0"/>
	<rect x="318" y="18" width="78" height="50" fill="none" rx="14" stroke="#de77ae" stroke-width="2"/>
	<line x1="318" y1="43" x2="396" y2="43" stroke="#de77ae" stroke-width="1"/>
	<text x="325" y="35.7" fill="#000000" font-family="Verdana" font-size="12">RECEVOIR</text>
</g>

<!-- Entity CATÉGORIE -->
<g id="entity-CATÉGORIE">
	<g id="frame-CATÉGORIE">
		<rect x="176" y="297" width="82" height="25" fill="#b8e186" stroke="#b8e186" stroke-width="0"/>
		<rect x="176" y="322.0" width="82" height="25" fill="#e6f5d0" stroke="#e6f5d0" stroke-width="0"/>
		<rect x="176" y="297" width="82" height="50" fill="none" stroke="#7fbc41" stroke-width="2"/>
		<line x1="176" y1="322" x2="258" y2="322" stroke="#7fbc41" stroke-width="1"/>
	</g>
	<text x="181" y="314.7" fill="#000000" font-family="Verdana" font-size="12">CATÉGORIE</text>
	<text x="181" y="339.8" fill="#000000" font-family="Verdana" font-size="12">libellé</text>
	<line x1="181" y1="342" x2="217" y2="342" stroke="#000000" stroke-width="1"/>
</g>

<!-- Entity MESSAGE -->
<g id="entity-MESSAGE">
	<g id="frame-MESSAGE">
		<rect x="459" y="9" width="86" height="25" fill="#b8e186" stroke="#b8e186" stroke-width="0"/>
		<rect x="459" y="34.0" width="86" height="43" fill="#e6f5d0" stroke="#e6f5d0" stroke-width="0"/>
		<rect x="459" y="9" width="86" height="68" fill="none" stroke="#7fbc41" stroke-width="2"/>
		<line x1="459" y1="34" x2="545" y2="34" stroke="#7fbc41" stroke-width="1"/>
	</g>
	<text x="472" y="26.7" fill="#000000" font-family="Verdana" font-size="12">MESSAGE</text>
	<text x="464" y="51.8" fill="#000000" font-family="Verdana" font-size="12">contenu</text>
	<line x1="464" y1="54" x2="513" y2="54" stroke="#000000" stroke-width="1"/>
	<text x="464" y="68.8" fill="#000000" font-family="Verdana" font-size="12">timestamptz</text>
</g>

<!-- Entity RÉSERVATION -->
<g id="entity-RÉSERVATION">
	<g id="frame-RÉSERVATION">
		<rect x="168" y="9" width="98" height="25" fill="#b8e186" stroke="#b8e186" stroke-width="0"/>
		<rect x="168" y="34.0" width="98" height="43" fill="#e6f5d0" stroke="#e6f5d0" stroke-width="0"/>
		<rect x="168" y="9" width="98" height="68" fill="none" stroke="#7fbc41" stroke-width="2"/>
		<line x1="168" y1="34" x2="266" y2="34" stroke="#7fbc41" stroke-width="1"/>
	</g>
	<text x="173" y="26.7" fill="#000000" font-family="Verdana" font-size="12">RÉSERVATION</text>
	<text x="173" y="51.8" fill="#000000" font-family="Verdana" font-size="12">date de début</text>
	<line x1="173" y1="54" x2="258" y2="54" stroke="#000000" stroke-width="1"/>
	<text x="173" y="68.8" fill="#000000" font-family="Verdana" font-size="12">date de fin</text>
</g>

<!-- Entity UTILISATEUR -->
<g id="entity-UTILISATEUR">
	<g id="frame-UTILISATEUR">
		<rect x="281" y="102" width="152" height="25" fill="#b8e186" stroke="#b8e186" stroke-width="0"/>
		<rect x="281" y="127.0" width="152" height="145" fill="#e6f5d0" stroke="#e6f5d0" stroke-width="0"/>
		<rect x="281" y="102" width="152" height="170" fill="none" stroke="#7fbc41" stroke-width="2"/>
		<line x1="281" y1="127" x2="433" y2="127" stroke="#7fbc41" stroke-width="1"/>
	</g>
	<text x="315" y="119.7" fill="#000000" font-family="Verdana" font-size="12">UTILISATEUR</text>
	<text x="286" y="144.7" fill="#000000" font-family="Verdana" font-size="12">pseudo</text>
	<line x1="286" y1="147" x2="330" y2="147" stroke="#000000" stroke-width="1"/>
	<text x="286" y="161.7" fill="#000000" font-family="Verdana" font-size="12">adresse mail</text>
	<text x="286" y="178.7" fill="#000000" font-family="Verdana" font-size="12">mot de passe</text>
	<text x="286" y="195.8" fill="#000000" font-family="Verdana" font-size="12">téléphone</text>
	<text x="286" y="212.8" fill="#000000" font-family="Verdana" font-size="12">recherche sauvegardée</text>
	<text x="286" y="229.8" fill="#000000" font-family="Verdana" font-size="12">favori</text>
	<text x="286" y="246.8" fill="#000000" font-family="Verdana" font-size="12">localisation</text>
	<text x="286" y="263.8" fill="#000000" font-family="Verdana" font-size="12">note</text>
</g>

<!-- Entity ANNONCE -->
<g id="entity-ANNONCE">
	<g id="frame-ANNONCE">
		<rect x="9" y="102" width="144" height="25" fill="#b8e186" stroke="#b8e186" stroke-width="0"/>
		<rect x="9" y="127.0" width="144" height="145" fill="#e6f5d0" stroke="#e6f5d0" stroke-width="0"/>
		<rect x="9" y="102" width="144" height="170" fill="none" stroke="#7fbc41" stroke-width="2"/>
		<line x1="9" y1="127" x2="153" y2="127" stroke="#7fbc41" stroke-width="1"/>
	</g>
	<text x="50" y="119.7" fill="#000000" font-family="Verdana" font-size="12">ANNONCE</text>
	<text x="14" y="144.7" fill="#000000" font-family="Verdana" font-size="12">titre</text>
	<line x1="14" y1="147" x2="40" y2="147" stroke="#000000" stroke-width="1"/>
	<text x="14" y="161.7" fill="#000000" font-family="Verdana" font-size="12">photo</text>
	<text x="14" y="178.7" fill="#000000" font-family="Verdana" font-size="12">prix</text>
	<text x="14" y="195.8" fill="#000000" font-family="Verdana" font-size="12">état du produit</text>
	<text x="14" y="212.8" fill="#000000" font-family="Verdana" font-size="12">montant de la caution</text>
	<text x="14" y="229.8" fill="#000000" font-family="Verdana" font-size="12">description</text>
	<text x="14" y="246.8" fill="#000000" font-family="Verdana" font-size="12">type d'annonce</text>
	<text x="14" y="263.8" fill="#000000" font-family="Verdana" font-size="12">note produit</text>
</g>
</svg>