<?xml version="1.0" standalone="no"?>
<!DOCTYPE svg PUBLIC "-//W3C//DTD SVG 1.1//EN"
"http://www.w3.org/Graphics/SVG/1.1/DTD/svg11.dtd">

<svg width="466" height="467" view_box="0 0 466 467"
xmlns="http://www.w3.org/2000/svg"
xmlns:link="http://www.w3.org/1999/xlink">\n\n<desc>Généré par Mocodo 2.3.7 le Sat, 05 Jun 2021 01:41:03</desc>

<rect id="frame" x="0" y="0" width="466" height="467" fill="#f7f7f7" stroke="none" stroke-width="0"/>

<!-- Association ÉCRIT-RECOIT -->
<line x1="85" y1="94" x2="245" y2="94" stroke="#de77ae" stroke-width="2"/>
<text x="166" y="111.0" fill="#4d9221" font-family="Verdana" font-size="12">0,N</text>
<line x1="403" y1="94" x2="245" y2="94" stroke="#de77ae" stroke-width="2"/>
<text x="334" y="111.0" fill="#4d9221" font-family="Verdana" font-size="12">1,1</text>
<g id="association-ÉCRIT-RECOIT">
	<path d="M 283 69 a 14 14 90 0 1 14 14 V 94 h -104 V 83 a 14 14 90 0 1 14 -14" fill="#f1b6da" stroke="#f1b6da" stroke-width="0"/>
	<path d="M 297 94.0 v 11 a 14 14 90 0 1 -14 14 H 207 a 14 14 90 0 1 -14 -14 V 94.0 H 104" fill="#fde0ef" stroke="#fde0ef" stroke-width="0"/>
	<rect x="193" y="69" width="104" height="50" fill="none" rx="14" stroke="#de77ae" stroke-width="2"/>
	<line x1="193" y1="94" x2="297" y2="94" stroke="#de77ae" stroke-width="1"/>
	<text x="200" y="86.7" fill="#000000" font-family="Verdana" font-size="12">ÉCRIT-RECOIT</text>
</g>

<!-- Association CORRESPOND A -->
<line x1="245" y1="289" x2="245" y2="424" stroke="#de77ae" stroke-width="2"/>
<text x="250.0" y="391" fill="#4d9221" font-family="Verdana" font-size="12">1,1</text>
<line x1="85" y1="424" x2="245" y2="424" stroke="#de77ae" stroke-width="2"/>
<text x="131" y="441.0" fill="#4d9221" font-family="Verdana" font-size="12">0,N</text>
<g id="association-CORRESPOND A">
	<path d="M 288 399 a 14 14 90 0 1 14 14 V 424 h -114 V 413 a 14 14 90 0 1 14 -14" fill="#f1b6da" stroke="#f1b6da" stroke-width="0"/>
	<path d="M 302 424.0 v 11 a 14 14 90 0 1 -14 14 H 202 a 14 14 90 0 1 -14 -14 V 424.0 H 114" fill="#fde0ef" stroke="#fde0ef" stroke-width="0"/>
	<rect x="188" y="399" width="114" height="50" fill="none" rx="14" stroke="#de77ae" stroke-width="2"/>
	<line x1="188" y1="424" x2="302" y2="424" stroke="#de77ae" stroke-width="1"/>
	<text x="195" y="416.7" fill="#000000" font-family="Verdana" font-size="12">CORRESPOND A</text>
</g>

<!-- Association ÉCRIT -->
<line x1="85" y1="94" x2="85" y2="289" stroke="#de77ae" stroke-width="2"/>
<text x="90.0" y="196" fill="#4d9221" font-family="Verdana" font-size="12">0,N</text>
<line x1="245" y1="289" x2="85" y2="289" stroke="#de77ae" stroke-width="2"/>
<text x="147" y="306.0" fill="#4d9221" font-family="Verdana" font-size="12">1,1</text>
<g id="association-ÉCRIT">
	<path d="M 97 264 a 14 14 90 0 1 14 14 V 289 h -52 V 278 a 14 14 90 0 1 14 -14" fill="#f1b6da" stroke="#f1b6da" stroke-width="0"/>
	<path d="M 111 289.0 v 11 a 14 14 90 0 1 -14 14 H 73 a 14 14 90 0 1 -14 -14 V 289.0 H 52" fill="#fde0ef" stroke="#fde0ef" stroke-width="0"/>
	<rect x="59" y="264" width="52" height="50" fill="none" rx="14" stroke="#de77ae" stroke-width="2"/>
	<line x1="59" y1="289" x2="111" y2="289" stroke="#de77ae" stroke-width="1"/>
	<text x="66" y="281.7" fill="#000000" font-family="Verdana" font-size="12">ÉCRIT</text>
</g>

<!-- Association EST RESSERVE -->
<line x1="245" y1="289" x2="403" y2="289" stroke="#de77ae" stroke-width="2"/>
<text x="322" y="306.0" fill="#4d9221" font-family="Verdana" font-size="12">0,N</text>
<line x1="403" y1="424" x2="403" y2="289" stroke="#de77ae" stroke-width="2"/>
<text x="408.0" y="382" fill="#4d9221" font-family="Verdana" font-size="12">1,1</text>
<g id="association-EST RESSERVE">
	<path d="M 443 264 a 14 14 90 0 1 14 14 V 289 h -108 V 278 a 14 14 90 0 1 14 -14" fill="#f1b6da" stroke="#f1b6da" stroke-width="0"/>
	<path d="M 457 289.0 v 11 a 14 14 90 0 1 -14 14 H 363 a 14 14 90 0 1 -14 -14 V 289.0 H 108" fill="#fde0ef" stroke="#fde0ef" stroke-width="0"/>
	<rect x="349" y="264" width="108" height="50" fill="none" rx="14" stroke="#de77ae" stroke-width="2"/>
	<line x1="349" y1="289" x2="457" y2="289" stroke="#de77ae" stroke-width="1"/>
	<text x="356" y="281.7" fill="#000000" font-family="Verdana" font-size="12">EST RESSERVE</text>
</g>

<!-- Entity CATÉGORIE -->
<g id="entity-CATÉGORIE">
	<g id="frame-CATÉGORIE">
		<rect x="44" y="399" width="82" height="25" fill="#b8e186" stroke="#b8e186" stroke-width="0"/>
		<rect x="44" y="424.0" width="82" height="25" fill="#e6f5d0" stroke="#e6f5d0" stroke-width="0"/>
		<rect x="44" y="399" width="82" height="50" fill="none" stroke="#7fbc41" stroke-width="2"/>
		<line x1="44" y1="424" x2="126" y2="424" stroke="#7fbc41" stroke-width="1"/>
	</g>
	<text x="49" y="416.7" fill="#000000" font-family="Verdana" font-size="12">CATÉGORIE</text>
	<text x="49" y="441.8" fill="#000000" font-family="Verdana" font-size="12">libellé</text>
	<line x1="49" y1="444" x2="85" y2="444" stroke="#000000" stroke-width="1"/>
</g>

<!-- Entity RÉSERVATION -->
<g id="entity-RÉSERVATION">
	<g id="frame-RÉSERVATION">
		<rect x="354" y="390" width="98" height="25" fill="#b8e186" stroke="#b8e186" stroke-width="0"/>
		<rect x="354" y="415.0" width="98" height="43" fill="#e6f5d0" stroke="#e6f5d0" stroke-width="0"/>
		<rect x="354" y="390" width="98" height="68" fill="none" stroke="#7fbc41" stroke-width="2"/>
		<line x1="354" y1="415" x2="452" y2="415" stroke="#7fbc41" stroke-width="1"/>
	</g>
	<text x="359" y="407.7" fill="#000000" font-family="Verdana" font-size="12">RÉSERVATION</text>
	<text x="359" y="432.8" fill="#000000" font-family="Verdana" font-size="12">date de début</text>
	<line x1="359" y1="435" x2="444" y2="435" stroke="#000000" stroke-width="1"/>
	<text x="359" y="449.8" fill="#000000" font-family="Verdana" font-size="12">date de fin</text>
</g>

<!-- Entity UTILISATEUR -->
<g id="entity-UTILISATEUR">
	<g id="frame-UTILISATEUR">
		<rect x="9" y="9" width="152" height="25" fill="#b8e186" stroke="#b8e186" stroke-width="0"/>
		<rect x="9" y="34.0" width="152" height="145" fill="#e6f5d0" stroke="#e6f5d0" stroke-width="0"/>
		<rect x="9" y="9" width="152" height="170" fill="none" stroke="#7fbc41" stroke-width="2"/>
		<line x1="9" y1="34" x2="161" y2="34" stroke="#7fbc41" stroke-width="1"/>
	</g>
	<text x="43" y="26.7" fill="#000000" font-family="Verdana" font-size="12">UTILISATEUR</text>
	<text x="14" y="51.7" fill="#000000" font-family="Verdana" font-size="12">pseudo</text>
	<line x1="14" y1="54" x2="58" y2="54" stroke="#000000" stroke-width="1"/>
	<text x="14" y="68.7" fill="#000000" font-family="Verdana" font-size="12">adresse mail</text>
	<text x="14" y="85.7" fill="#000000" font-family="Verdana" font-size="12">mot de passe</text>
	<text x="14" y="102.8" fill="#000000" font-family="Verdana" font-size="12">téléphone</text>
	<text x="14" y="119.8" fill="#000000" font-family="Verdana" font-size="12">recherche sauvegardée</text>
	<text x="14" y="136.8" fill="#000000" font-family="Verdana" font-size="12">favori</text>
	<text x="14" y="153.8" fill="#000000" font-family="Verdana" font-size="12">localisation</text>
	<text x="14" y="170.8" fill="#000000" font-family="Verdana" font-size="12">note</text>
</g>

<!-- Entity MESSAGE -->
<g id="entity-MESSAGE">
	<g id="frame-MESSAGE">
		<rect x="360" y="60" width="86" height="25" fill="#b8e186" stroke="#b8e186" stroke-width="0"/>
		<rect x="360" y="85.0" width="86" height="43" fill="#e6f5d0" stroke="#e6f5d0" stroke-width="0"/>
		<rect x="360" y="60" width="86" height="68" fill="none" stroke="#7fbc41" stroke-width="2"/>
		<line x1="360" y1="85" x2="446" y2="85" stroke="#7fbc41" stroke-width="1"/>
	</g>
	<text x="373" y="77.7" fill="#000000" font-family="Verdana" font-size="12">MESSAGE</text>
	<text x="365" y="102.8" fill="#000000" font-family="Verdana" font-size="12">contenu</text>
	<line x1="365" y1="105" x2="414" y2="105" stroke="#000000" stroke-width="1"/>
	<text x="365" y="119.8" fill="#000000" font-family="Verdana" font-size="12">timestamptz</text>
</g>

<!-- Entity ANNONCE -->
<g id="entity-ANNONCE">
	<g id="frame-ANNONCE">
		<rect x="173" y="204" width="144" height="25" fill="#b8e186" stroke="#b8e186" stroke-width="0"/>
		<rect x="173" y="229.0" width="144" height="145" fill="#e6f5d0" stroke="#e6f5d0" stroke-width="0"/>
		<rect x="173" y="204" width="144" height="170" fill="none" stroke="#7fbc41" stroke-width="2"/>
		<line x1="173" y1="229" x2="317" y2="229" stroke="#7fbc41" stroke-width="1"/>
	</g>
	<text x="214" y="221.7" fill="#000000" font-family="Verdana" font-size="12">ANNONCE</text>
	<text x="178" y="246.7" fill="#000000" font-family="Verdana" font-size="12">titre</text>
	<line x1="178" y1="249" x2="204" y2="249" stroke="#000000" stroke-width="1"/>
	<text x="178" y="263.7" fill="#000000" font-family="Verdana" font-size="12">photo</text>
	<text x="178" y="280.7" fill="#000000" font-family="Verdana" font-size="12">prix</text>
	<text x="178" y="297.8" fill="#000000" font-family="Verdana" font-size="12">état du produit</text>
	<text x="178" y="314.8" fill="#000000" font-family="Verdana" font-size="12">montant de la caution</text>
	<text x="178" y="331.8" fill="#000000" font-family="Verdana" font-size="12">description</text>
	<text x="178" y="348.8" fill="#000000" font-family="Verdana" font-size="12">type d'annonce</text>
	<text x="178" y="365.8" fill="#000000" font-family="Verdana" font-size="12">note produit</text>
</g>
</svg>