<?xml version="1.0" standalone="no"?>
<!DOCTYPE svg PUBLIC "-//W3C//DTD SVG 1.1//EN"
"http://www.w3.org/Graphics/SVG/1.1/DTD/svg11.dtd">

<svg width="472" height="449" view_box="0 0 472 449"
xmlns="http://www.w3.org/2000/svg"
xmlns:link="http://www.w3.org/1999/xlink">\n\n<desc>Généré par Mocodo 2.3.7 le Fri, 04 Jun 2021 09:21:28</desc>

<rect id="frame" x="0" y="0" width="472" height="449" fill="#f7f7f7" stroke="none" stroke-width="0"/>

<!-- Association ÉCRIT-RECOIT -->
<line x1="387" y1="355" x2="227" y2="355" stroke="#9970ab" stroke-width="2"/>
<text x="284" y="372.0" fill="#1b7837" font-family="Verdana" font-size="12">0,N</text>
<line x1="66" y1="355" x2="227" y2="355" stroke="#9970ab" stroke-width="2"/>
<text x="114" y="372.0" fill="#1b7837" font-family="Verdana" font-size="12">1,1</text>
<g id="association-ÉCRIT-RECOIT">
	<path d="M 265 330 a 14 14 90 0 1 14 14 V 355 h -104 V 344 a 14 14 90 0 1 14 -14" fill="#c2a5cf" stroke="#c2a5cf" stroke-width="0"/>
	<path d="M 279 355.0 v 11 a 14 14 90 0 1 -14 14 H 189 a 14 14 90 0 1 -14 -14 V 355.0 H 104" fill="#e7d4e8" stroke="#e7d4e8" stroke-width="0"/>
	<rect x="175" y="330" width="104" height="50" fill="none" rx="14" stroke="#9970ab" stroke-width="2"/>
	<line x1="175" y1="355" x2="279" y2="355" stroke="#9970ab" stroke-width="1"/>
	<text x="182" y="347.7" fill="#000000" font-family="Verdana" font-size="12">ÉCRIT-RECOIT</text>
</g>

<!-- Association CORRESPOND A -->
<line x1="227" y1="169" x2="66" y2="169" stroke="#9970ab" stroke-width="2"/>
<text x="129" y="186.0" fill="#1b7837" font-family="Verdana" font-size="12">1,1</text>
<line x1="66" y1="43" x2="66" y2="169" stroke="#9970ab" stroke-width="2"/>
<text x="71.0" y="85" fill="#1b7837" font-family="Verdana" font-size="12">0,N</text>
<g id="association-CORRESPOND A">
	<path d="M 109 144 a 14 14 90 0 1 14 14 V 169 h -114 V 158 a 14 14 90 0 1 14 -14" fill="#c2a5cf" stroke="#c2a5cf" stroke-width="0"/>
	<path d="M 123 169.0 v 11 a 14 14 90 0 1 -14 14 H 23 a 14 14 90 0 1 -14 -14 V 169.0 H 114" fill="#e7d4e8" stroke="#e7d4e8" stroke-width="0"/>
	<rect x="9" y="144" width="114" height="50" fill="none" rx="14" stroke="#9970ab" stroke-width="2"/>
	<line x1="9" y1="169" x2="123" y2="169" stroke="#9970ab" stroke-width="1"/>
	<text x="16" y="161.7" fill="#000000" font-family="Verdana" font-size="12">CORRESPOND A</text>
</g>

<!-- Association ÉCRIT -->
<line x1="387" y1="355" x2="387" y2="169" stroke="#9970ab" stroke-width="2"/>
<text x="392.0" y="262" fill="#1b7837" font-family="Verdana" font-size="12">0,N</text>
<line x1="227" y1="169" x2="387" y2="169" stroke="#9970ab" stroke-width="2"/>
<text x="304" y="186.0" fill="#1b7837" font-family="Verdana" font-size="12">1,1</text>
<g id="association-ÉCRIT">
	<path d="M 399 144 a 14 14 90 0 1 14 14 V 169 h -52 V 158 a 14 14 90 0 1 14 -14" fill="#c2a5cf" stroke="#c2a5cf" stroke-width="0"/>
	<path d="M 413 169.0 v 11 a 14 14 90 0 1 -14 14 H 375 a 14 14 90 0 1 -14 -14 V 169.0 H 52" fill="#e7d4e8" stroke="#e7d4e8" stroke-width="0"/>
	<rect x="361" y="144" width="52" height="50" fill="none" rx="14" stroke="#9970ab" stroke-width="2"/>
	<line x1="361" y1="169" x2="413" y2="169" stroke="#9970ab" stroke-width="1"/>
	<text x="368" y="161.7" fill="#000000" font-family="Verdana" font-size="12">ÉCRIT</text>
</g>

<!-- Association EST RESSERVE -->
<line x1="227" y1="169" x2="227" y2="43" stroke="#9970ab" stroke-width="2"/>
<text x="232.0" y="85" fill="#1b7837" font-family="Verdana" font-size="12">0,N</text>
<line x1="387" y1="43" x2="227" y2="43" stroke="#9970ab" stroke-width="2"/>
<text x="312" y="60.0" fill="#1b7837" font-family="Verdana" font-size="12">1,1</text>
<g id="association-EST RESSERVE">
	<path d="M 267 18 a 14 14 90 0 1 14 14 V 43 h -108 V 32 a 14 14 90 0 1 14 -14" fill="#c2a5cf" stroke="#c2a5cf" stroke-width="0"/>
	<path d="M 281 43.0 v 11 a 14 14 90 0 1 -14 14 H 187 a 14 14 90 0 1 -14 -14 V 43.0 H 108" fill="#e7d4e8" stroke="#e7d4e8" stroke-width="0"/>
	<rect x="173" y="18" width="108" height="50" fill="none" rx="14" stroke="#9970ab" stroke-width="2"/>
	<line x1="173" y1="43" x2="281" y2="43" stroke="#9970ab" stroke-width="1"/>
	<text x="180" y="35.7" fill="#000000" font-family="Verdana" font-size="12">EST RESSERVE</text>
</g>

<!-- Entity CATÉGORIE -->
<g id="entity-CATÉGORIE">
	<g id="frame-CATÉGORIE">
		<rect x="25" y="18" width="82" height="25" fill="#a6dba0" stroke="#a6dba0" stroke-width="0"/>
		<rect x="25" y="43.0" width="82" height="25" fill="#d9f0d3" stroke="#d9f0d3" stroke-width="0"/>
		<rect x="25" y="18" width="82" height="50" fill="none" stroke="#5aae61" stroke-width="2"/>
		<line x1="25" y1="43" x2="107" y2="43" stroke="#5aae61" stroke-width="1"/>
	</g>
	<text x="30" y="35.7" fill="#000000" font-family="Verdana" font-size="12">CATÉGORIE</text>
	<text x="30" y="60.8" fill="#000000" font-family="Verdana" font-size="12">libellé</text>
	<line x1="30" y1="63" x2="66" y2="63" stroke="#000000" stroke-width="1"/>
</g>

<!-- Entity MESSAGE -->
<g id="entity-MESSAGE">
	<g id="frame-MESSAGE">
		<rect x="23" y="321" width="86" height="25" fill="#a6dba0" stroke="#a6dba0" stroke-width="0"/>
		<rect x="23" y="346.0" width="86" height="43" fill="#d9f0d3" stroke="#d9f0d3" stroke-width="0"/>
		<rect x="23" y="321" width="86" height="68" fill="none" stroke="#5aae61" stroke-width="2"/>
		<line x1="23" y1="346" x2="109" y2="346" stroke="#5aae61" stroke-width="1"/>
	</g>
	<text x="36" y="338.7" fill="#000000" font-family="Verdana" font-size="12">MESSAGE</text>
	<text x="28" y="363.8" fill="#000000" font-family="Verdana" font-size="12">contenu</text>
	<line x1="28" y1="366" x2="77" y2="366" stroke="#000000" stroke-width="1"/>
	<text x="28" y="380.8" fill="#000000" font-family="Verdana" font-size="12">timestamptz</text>
</g>

<!-- Entity RÉSERVATION -->
<g id="entity-RÉSERVATION">
	<g id="frame-RÉSERVATION">
		<rect x="338" y="9" width="98" height="25" fill="#a6dba0" stroke="#a6dba0" stroke-width="0"/>
		<rect x="338" y="34.0" width="98" height="43" fill="#d9f0d3" stroke="#d9f0d3" stroke-width="0"/>
		<rect x="338" y="9" width="98" height="68" fill="none" stroke="#5aae61" stroke-width="2"/>
		<line x1="338" y1="34" x2="436" y2="34" stroke="#5aae61" stroke-width="1"/>
	</g>
	<text x="343" y="26.7" fill="#000000" font-family="Verdana" font-size="12">RÉSERVATION</text>
	<text x="343" y="51.8" fill="#000000" font-family="Verdana" font-size="12">date de début</text>
	<line x1="343" y1="54" x2="428" y2="54" stroke="#000000" stroke-width="1"/>
	<text x="343" y="68.8" fill="#000000" font-family="Verdana" font-size="12">date de fin</text>
</g>

<!-- Entity UTILISATEUR -->
<g id="entity-UTILISATEUR">
	<g id="frame-UTILISATEUR">
		<rect x="311" y="270" width="152" height="25" fill="#a6dba0" stroke="#a6dba0" stroke-width="0"/>
		<rect x="311" y="295.0" width="152" height="145" fill="#d9f0d3" stroke="#d9f0d3" stroke-width="0"/>
		<rect x="311" y="270" width="152" height="170" fill="none" stroke="#5aae61" stroke-width="2"/>
		<line x1="311" y1="295" x2="463" y2="295" stroke="#5aae61" stroke-width="1"/>
	</g>
	<text x="345" y="287.7" fill="#000000" font-family="Verdana" font-size="12">UTILISATEUR</text>
	<text x="316" y="312.7" fill="#000000" font-family="Verdana" font-size="12">pseudo</text>
	<line x1="316" y1="315" x2="360" y2="315" stroke="#000000" stroke-width="1"/>
	<text x="316" y="329.7" fill="#000000" font-family="Verdana" font-size="12">adresse mail</text>
	<text x="316" y="346.7" fill="#000000" font-family="Verdana" font-size="12">mot de passe</text>
	<text x="316" y="363.8" fill="#000000" font-family="Verdana" font-size="12">téléphone</text>
	<text x="316" y="380.8" fill="#000000" font-family="Verdana" font-size="12">recherche sauvegardée</text>
	<text x="316" y="397.8" fill="#000000" font-family="Verdana" font-size="12">favori</text>
	<text x="316" y="414.8" fill="#000000" font-family="Verdana" font-size="12">localisation</text>
	<text x="316" y="431.8" fill="#000000" font-family="Verdana" font-size="12">note</text>
</g>

<!-- Entity ANNONCE -->
<g id="entity-ANNONCE">
	<g id="frame-ANNONCE">
		<rect x="155" y="93" width="144" height="25" fill="#a6dba0" stroke="#a6dba0" stroke-width="0"/>
		<rect x="155" y="118.0" width="144" height="127" fill="#d9f0d3" stroke="#d9f0d3" stroke-width="0"/>
		<rect x="155" y="93" width="144" height="152" fill="none" stroke="#5aae61" stroke-width="2"/>
		<line x1="155" y1="118" x2="299" y2="118" stroke="#5aae61" stroke-width="1"/>
	</g>
	<text x="196" y="110.7" fill="#000000" font-family="Verdana" font-size="12">ANNONCE</text>
	<text x="160" y="135.7" fill="#000000" font-family="Verdana" font-size="12">titre</text>
	<line x1="160" y1="138" x2="186" y2="138" stroke="#000000" stroke-width="1"/>
	<text x="160" y="152.7" fill="#000000" font-family="Verdana" font-size="12">prix</text>
	<text x="160" y="169.8" fill="#000000" font-family="Verdana" font-size="12">état du produit</text>
	<text x="160" y="186.8" fill="#000000" font-family="Verdana" font-size="12">montant de la caution</text>
	<text x="160" y="203.8" fill="#000000" font-family="Verdana" font-size="12">description</text>
	<text x="160" y="220.8" fill="#000000" font-family="Verdana" font-size="12">type d'annonce</text>
	<text x="160" y="237.8" fill="#000000" font-family="Verdana" font-size="12">note produit</text>
</g>
</svg>